# xmcd CD database file
#
# Track frame offsets:
#	150
#	16125
#	29250
#	48248
#	66988
#	85388
#	104713
#	122300
#	137358
#	152825
#
# Disc length: 2246 seconds
#
# Revision: 0
# Processed by: cddbd v1.5.1PL0 Copyright (c) Steve Scherf et al.
# Submitted via: CDex 1.51
#
DISCID=7a08c40a
DTITLE=石川晶とカウント・バッファローズ - JAM TRIP 「超時空要塞マクロス」
DYEAR=1900
DGENRE=Jazz
TTITLE0=私の彼はパイロット
TTITLE1=あ・こ・が・れ
TTITLE2=シルバームーン・レッドムーン
TTITLE3=沈痛
TTITLE4=マクロス
TTITLE5=カーニバル - SUNSET BEACH
TTITLE6=愛は流れる
TTITLE7=ドッグ・ファイター
TTITLE8=ランナー
TTITLE9=0-G・Love
EXTD=
EXTT0=
EXTT1=
EXTT2=
EXTT3=
EXTT4=
EXTT5=
EXTT6=
EXTT7=
EXTT8=
EXTT9=
PLAYORDER=
